<mxfile host="app.diagrams.net" modified="2021-12-25T05:03:31.774Z" agent="5.0 (Macintosh; Intel Mac OS X 10_15_7) AppleWebKit/605.1.15 (KHTML, like Gecko) Version/15.1 Safari/605.1.15" etag="AENOVqbwnP1_rrWr4f1k" version="16.0.3" type="github">
  <diagram id="Udz62ujIdolEC2k2vhNW" name="Page-1">
    <mxGraphModel dx="1426" dy="1994" grid="1" gridSize="10" guides="1" tooltips="1" connect="1" arrows="0" fold="1" page="1" pageScale="1" pageWidth="827" pageHeight="1169" math="0" shadow="0">
      <root>
        <mxCell id="0" />
        <mxCell id="1" parent="0" />
        <mxCell id="k8Uw34xPk5UIhXiY5Jou-36" value="" style="group" parent="1" vertex="1" connectable="0">
          <mxGeometry x="177.51" y="-588.1" width="442.49" height="120" as="geometry" />
        </mxCell>
        <mxCell id="k8Uw34xPk5UIhXiY5Jou-13" value="" style="group" parent="k8Uw34xPk5UIhXiY5Jou-36" vertex="1" connectable="0">
          <mxGeometry x="212.49" width="94" height="40" as="geometry" />
        </mxCell>
        <mxCell id="k8Uw34xPk5UIhXiY5Jou-1" value="" style="verticalLabelPosition=bottom;verticalAlign=top;html=1;shape=mxgraph.basic.polygon;polyCoords=[[0.25,0],[0.75,0],[1,0.25],[1,0.75],[0.75,1],[0.25,1],[0,0.75],[0,0.25]];polyline=0;" parent="k8Uw34xPk5UIhXiY5Jou-13" vertex="1">
          <mxGeometry width="80" height="40" as="geometry" />
        </mxCell>
        <mxCell id="k8Uw34xPk5UIhXiY5Jou-2" value="" style="line;strokeWidth=2;html=1;" parent="k8Uw34xPk5UIhXiY5Jou-13" vertex="1">
          <mxGeometry x="10" y="15" width="60" height="10" as="geometry" />
        </mxCell>
        <mxCell id="k8Uw34xPk5UIhXiY5Jou-3" value="" style="shape=waypoint;sketch=0;fillStyle=solid;size=6;pointerEvents=1;points=[];fillColor=none;resizable=0;rotatable=0;perimeter=centerPerimeter;snapToPoint=1;" parent="k8Uw34xPk5UIhXiY5Jou-13" vertex="1">
          <mxGeometry x="10" width="40" height="40" as="geometry" />
        </mxCell>
        <mxCell id="k8Uw34xPk5UIhXiY5Jou-4" value="" style="shape=waypoint;sketch=0;fillStyle=solid;size=6;pointerEvents=1;points=[];fillColor=none;resizable=0;rotatable=0;perimeter=centerPerimeter;snapToPoint=1;" parent="k8Uw34xPk5UIhXiY5Jou-13" vertex="1">
          <mxGeometry x="20" width="40" height="40" as="geometry" />
        </mxCell>
        <mxCell id="k8Uw34xPk5UIhXiY5Jou-5" value="" style="shape=waypoint;sketch=0;fillStyle=solid;size=6;pointerEvents=1;points=[];fillColor=none;resizable=0;rotatable=0;perimeter=centerPerimeter;snapToPoint=1;" parent="k8Uw34xPk5UIhXiY5Jou-13" vertex="1">
          <mxGeometry x="30" width="40" height="40" as="geometry" />
        </mxCell>
        <mxCell id="k8Uw34xPk5UIhXiY5Jou-6" value="" style="whiteSpace=wrap;html=1;aspect=fixed;rotation=-90;" parent="k8Uw34xPk5UIhXiY5Jou-13" vertex="1">
          <mxGeometry x="69" y="7.5" width="25" height="25" as="geometry" />
        </mxCell>
        <mxCell id="k8Uw34xPk5UIhXiY5Jou-10" value="" style="line;strokeWidth=2;html=1;" parent="k8Uw34xPk5UIhXiY5Jou-13" vertex="1">
          <mxGeometry x="74" y="15" width="16" height="10" as="geometry" />
        </mxCell>
        <mxCell id="k8Uw34xPk5UIhXiY5Jou-14" value="" style="shape=loopLimit;whiteSpace=wrap;html=1;rotation=-90;horizontal=0;verticalAlign=middle;textDirection=ltr;labelPosition=center;verticalLabelPosition=middle;align=center;size=12;" parent="k8Uw34xPk5UIhXiY5Jou-36" vertex="1">
          <mxGeometry x="62.49000000000001" y="-61.900000000000006" width="38.82" height="163.8" as="geometry" />
        </mxCell>
        <mxCell id="k8Uw34xPk5UIhXiY5Jou-15" value="flowmodel.node.type" style="text;html=1;strokeColor=none;fillColor=none;align=center;verticalAlign=middle;whiteSpace=wrap;rounded=0;fontSize=13;fontStyle=1" parent="k8Uw34xPk5UIhXiY5Jou-36" vertex="1">
          <mxGeometry x="21.900000000000006" y="5" width="120" height="30" as="geometry" />
        </mxCell>
        <mxCell id="k8Uw34xPk5UIhXiY5Jou-18" value="" style="line;strokeWidth=2;html=1;fontSize=13;" parent="k8Uw34xPk5UIhXiY5Jou-36" vertex="1">
          <mxGeometry x="172.49" y="15" width="40" height="10" as="geometry" />
        </mxCell>
        <mxCell id="k8Uw34xPk5UIhXiY5Jou-22" value="" style="rounded=0;whiteSpace=wrap;html=1;fontSize=13;" parent="k8Uw34xPk5UIhXiY5Jou-36" vertex="1">
          <mxGeometry x="342.49" width="100" height="40" as="geometry" />
        </mxCell>
        <mxCell id="k8Uw34xPk5UIhXiY5Jou-25" value="" style="whiteSpace=wrap;html=1;aspect=fixed;rotation=-90;" parent="k8Uw34xPk5UIhXiY5Jou-36" vertex="1">
          <mxGeometry x="152.49" y="7.5" width="25" height="25" as="geometry" />
        </mxCell>
        <mxCell id="k8Uw34xPk5UIhXiY5Jou-26" value="" style="line;strokeWidth=2;html=1;" parent="k8Uw34xPk5UIhXiY5Jou-36" vertex="1">
          <mxGeometry x="156.99" y="15" width="16" height="10" as="geometry" />
        </mxCell>
        <mxCell id="k8Uw34xPk5UIhXiY5Jou-30" value="bounds" style="text;html=1;strokeColor=none;fillColor=none;align=center;verticalAlign=middle;whiteSpace=wrap;rounded=0;fontSize=13;fontStyle=1" parent="k8Uw34xPk5UIhXiY5Jou-36" vertex="1">
          <mxGeometry x="362.49" y="5" width="60" height="30" as="geometry" />
        </mxCell>
        <mxCell id="k8Uw34xPk5UIhXiY5Jou-31" value="" style="line;strokeWidth=2;html=1;fontSize=13;" parent="k8Uw34xPk5UIhXiY5Jou-36" vertex="1">
          <mxGeometry x="306.49" y="15" width="36" height="10" as="geometry" />
        </mxCell>
        <mxCell id="k8Uw34xPk5UIhXiY5Jou-32" value="" style="rounded=0;whiteSpace=wrap;html=1;fontSize=13;" parent="k8Uw34xPk5UIhXiY5Jou-36" vertex="1">
          <mxGeometry x="342.49" y="80" width="100" height="40" as="geometry" />
        </mxCell>
        <mxCell id="k8Uw34xPk5UIhXiY5Jou-33" value="tag" style="text;html=1;strokeColor=none;fillColor=none;align=center;verticalAlign=middle;whiteSpace=wrap;rounded=0;fontSize=13;fontStyle=1" parent="k8Uw34xPk5UIhXiY5Jou-36" vertex="1">
          <mxGeometry x="362.49" y="85" width="60" height="30" as="geometry" />
        </mxCell>
        <mxCell id="k8Uw34xPk5UIhXiY5Jou-35" value="" style="shape=partialRectangle;whiteSpace=wrap;html=1;bottom=0;right=0;fillColor=none;fontSize=13;rotation=90;direction=west;fontStyle=1;strokeWidth=2;" parent="k8Uw34xPk5UIhXiY5Jou-36" vertex="1">
          <mxGeometry x="293.72" y="50.620000000000005" width="78.15" height="18.33" as="geometry" />
        </mxCell>
        <mxCell id="sVDJuLf1VJ49UrlVqKed-46" value="" style="group" parent="1" vertex="1" connectable="0">
          <mxGeometry x="180" y="-931" width="440" height="142.5" as="geometry" />
        </mxCell>
        <mxCell id="sVDJuLf1VJ49UrlVqKed-2" value="" style="group" parent="sVDJuLf1VJ49UrlVqKed-46" vertex="1" connectable="0">
          <mxGeometry x="210" y="22.5" width="94" height="40" as="geometry" />
        </mxCell>
        <mxCell id="sVDJuLf1VJ49UrlVqKed-3" value="" style="verticalLabelPosition=bottom;verticalAlign=top;html=1;shape=mxgraph.basic.polygon;polyCoords=[[0.25,0],[0.75,0],[1,0.25],[1,0.75],[0.75,1],[0.25,1],[0,0.75],[0,0.25]];polyline=0;" parent="sVDJuLf1VJ49UrlVqKed-2" vertex="1">
          <mxGeometry width="80" height="40" as="geometry" />
        </mxCell>
        <mxCell id="sVDJuLf1VJ49UrlVqKed-4" value="" style="line;strokeWidth=2;html=1;" parent="sVDJuLf1VJ49UrlVqKed-2" vertex="1">
          <mxGeometry x="10" y="15" width="60" height="10" as="geometry" />
        </mxCell>
        <mxCell id="sVDJuLf1VJ49UrlVqKed-5" value="" style="shape=waypoint;sketch=0;fillStyle=solid;size=6;pointerEvents=1;points=[];fillColor=none;resizable=0;rotatable=0;perimeter=centerPerimeter;snapToPoint=1;" parent="sVDJuLf1VJ49UrlVqKed-2" vertex="1">
          <mxGeometry x="10" width="40" height="40" as="geometry" />
        </mxCell>
        <mxCell id="sVDJuLf1VJ49UrlVqKed-6" value="" style="shape=waypoint;sketch=0;fillStyle=solid;size=6;pointerEvents=1;points=[];fillColor=none;resizable=0;rotatable=0;perimeter=centerPerimeter;snapToPoint=1;" parent="sVDJuLf1VJ49UrlVqKed-2" vertex="1">
          <mxGeometry x="20" width="40" height="40" as="geometry" />
        </mxCell>
        <mxCell id="sVDJuLf1VJ49UrlVqKed-7" value="" style="shape=waypoint;sketch=0;fillStyle=solid;size=6;pointerEvents=1;points=[];fillColor=none;resizable=0;rotatable=0;perimeter=centerPerimeter;snapToPoint=1;" parent="sVDJuLf1VJ49UrlVqKed-2" vertex="1">
          <mxGeometry x="30" width="40" height="40" as="geometry" />
        </mxCell>
        <mxCell id="sVDJuLf1VJ49UrlVqKed-8" value="" style="whiteSpace=wrap;html=1;aspect=fixed;rotation=-90;" parent="sVDJuLf1VJ49UrlVqKed-2" vertex="1">
          <mxGeometry x="69" y="7.5" width="25" height="25" as="geometry" />
        </mxCell>
        <mxCell id="sVDJuLf1VJ49UrlVqKed-9" value="" style="line;strokeWidth=2;html=1;" parent="sVDJuLf1VJ49UrlVqKed-2" vertex="1">
          <mxGeometry x="74" y="15" width="16" height="10" as="geometry" />
        </mxCell>
        <mxCell id="sVDJuLf1VJ49UrlVqKed-12" value="" style="line;strokeWidth=2;html=1;fontSize=13;" parent="sVDJuLf1VJ49UrlVqKed-46" vertex="1">
          <mxGeometry x="170" y="37.5" width="40" height="10" as="geometry" />
        </mxCell>
        <mxCell id="sVDJuLf1VJ49UrlVqKed-13" value="" style="rounded=0;whiteSpace=wrap;html=1;fontSize=13;" parent="sVDJuLf1VJ49UrlVqKed-46" vertex="1">
          <mxGeometry x="340" y="22.5" width="100" height="40" as="geometry" />
        </mxCell>
        <mxCell id="sVDJuLf1VJ49UrlVqKed-16" value="bounds" style="text;html=1;strokeColor=none;fillColor=none;align=center;verticalAlign=middle;whiteSpace=wrap;rounded=0;fontSize=13;fontStyle=1" parent="sVDJuLf1VJ49UrlVqKed-46" vertex="1">
          <mxGeometry x="360" y="27.5" width="60" height="30" as="geometry" />
        </mxCell>
        <mxCell id="sVDJuLf1VJ49UrlVqKed-17" value="" style="line;strokeWidth=2;html=1;fontSize=13;" parent="sVDJuLf1VJ49UrlVqKed-46" vertex="1">
          <mxGeometry x="304" y="37.5" width="36" height="10" as="geometry" />
        </mxCell>
        <mxCell id="sVDJuLf1VJ49UrlVqKed-18" value="" style="rounded=0;whiteSpace=wrap;html=1;fontSize=13;" parent="sVDJuLf1VJ49UrlVqKed-46" vertex="1">
          <mxGeometry x="340" y="102.5" width="100" height="40" as="geometry" />
        </mxCell>
        <mxCell id="sVDJuLf1VJ49UrlVqKed-19" value="tag" style="text;html=1;strokeColor=none;fillColor=none;align=center;verticalAlign=middle;whiteSpace=wrap;rounded=0;fontSize=13;fontStyle=1" parent="sVDJuLf1VJ49UrlVqKed-46" vertex="1">
          <mxGeometry x="360" y="107.5" width="60" height="30" as="geometry" />
        </mxCell>
        <mxCell id="sVDJuLf1VJ49UrlVqKed-20" value="" style="shape=partialRectangle;whiteSpace=wrap;html=1;bottom=0;right=0;fillColor=none;fontSize=13;rotation=90;direction=west;fontStyle=1;strokeWidth=2;" parent="sVDJuLf1VJ49UrlVqKed-46" vertex="1">
          <mxGeometry x="291.23" y="73.12" width="78.15" height="18.33" as="geometry" />
        </mxCell>
        <mxCell id="sVDJuLf1VJ49UrlVqKed-22" value="" style="rounded=0;whiteSpace=wrap;html=1;" parent="sVDJuLf1VJ49UrlVqKed-46" vertex="1">
          <mxGeometry y="22.5" width="157.51" height="40" as="geometry" />
        </mxCell>
        <mxCell id="sVDJuLf1VJ49UrlVqKed-23" value="" style="whiteSpace=wrap;html=1;aspect=fixed;rotation=-90;" parent="sVDJuLf1VJ49UrlVqKed-46" vertex="1">
          <mxGeometry x="145" y="30" width="25" height="25" as="geometry" />
        </mxCell>
        <mxCell id="sVDJuLf1VJ49UrlVqKed-25" value="" style="line;strokeWidth=2;html=1;" parent="sVDJuLf1VJ49UrlVqKed-46" vertex="1">
          <mxGeometry x="149.5" width="16" height="85" as="geometry" />
        </mxCell>
        <mxCell id="sVDJuLf1VJ49UrlVqKed-26" value="node" style="text;html=1;strokeColor=none;fillColor=none;align=center;verticalAlign=middle;whiteSpace=wrap;rounded=0;fontSize=13;fontStyle=1" parent="sVDJuLf1VJ49UrlVqKed-46" vertex="1">
          <mxGeometry x="18.749999999999993" y="27.5" width="120" height="30" as="geometry" />
        </mxCell>
        <mxCell id="sVDJuLf1VJ49UrlVqKed-47" value="" style="group" parent="1" vertex="1" connectable="0">
          <mxGeometry x="181.31" y="-760" width="440.01" height="270" as="geometry" />
        </mxCell>
        <mxCell id="sVDJuLf1VJ49UrlVqKed-67" value="" style="group" parent="sVDJuLf1VJ49UrlVqKed-47" vertex="1" connectable="0">
          <mxGeometry width="440" height="85" as="geometry" />
        </mxCell>
        <mxCell id="sVDJuLf1VJ49UrlVqKed-48" value="" style="group" parent="sVDJuLf1VJ49UrlVqKed-67" vertex="1" connectable="0">
          <mxGeometry x="210" y="10" width="94" height="40" as="geometry" />
        </mxCell>
        <mxCell id="sVDJuLf1VJ49UrlVqKed-49" value="" style="verticalLabelPosition=bottom;verticalAlign=top;html=1;shape=mxgraph.basic.polygon;polyCoords=[[0.25,0],[0.75,0],[1,0.25],[1,0.75],[0.75,1],[0.25,1],[0,0.75],[0,0.25]];polyline=0;" parent="sVDJuLf1VJ49UrlVqKed-48" vertex="1">
          <mxGeometry width="80" height="40" as="geometry" />
        </mxCell>
        <mxCell id="sVDJuLf1VJ49UrlVqKed-50" value="" style="line;strokeWidth=2;html=1;" parent="sVDJuLf1VJ49UrlVqKed-48" vertex="1">
          <mxGeometry x="10" y="15" width="60" height="10" as="geometry" />
        </mxCell>
        <mxCell id="sVDJuLf1VJ49UrlVqKed-51" value="" style="shape=waypoint;sketch=0;fillStyle=solid;size=6;pointerEvents=1;points=[];fillColor=none;resizable=0;rotatable=0;perimeter=centerPerimeter;snapToPoint=1;" parent="sVDJuLf1VJ49UrlVqKed-48" vertex="1">
          <mxGeometry x="10" width="40" height="40" as="geometry" />
        </mxCell>
        <mxCell id="sVDJuLf1VJ49UrlVqKed-52" value="" style="shape=waypoint;sketch=0;fillStyle=solid;size=6;pointerEvents=1;points=[];fillColor=none;resizable=0;rotatable=0;perimeter=centerPerimeter;snapToPoint=1;" parent="sVDJuLf1VJ49UrlVqKed-48" vertex="1">
          <mxGeometry x="20" width="40" height="40" as="geometry" />
        </mxCell>
        <mxCell id="sVDJuLf1VJ49UrlVqKed-53" value="" style="shape=waypoint;sketch=0;fillStyle=solid;size=6;pointerEvents=1;points=[];fillColor=none;resizable=0;rotatable=0;perimeter=centerPerimeter;snapToPoint=1;" parent="sVDJuLf1VJ49UrlVqKed-48" vertex="1">
          <mxGeometry x="30" width="40" height="40" as="geometry" />
        </mxCell>
        <mxCell id="sVDJuLf1VJ49UrlVqKed-54" value="" style="whiteSpace=wrap;html=1;aspect=fixed;rotation=-90;" parent="sVDJuLf1VJ49UrlVqKed-48" vertex="1">
          <mxGeometry x="69" y="7.5" width="25" height="25" as="geometry" />
        </mxCell>
        <mxCell id="sVDJuLf1VJ49UrlVqKed-55" value="" style="line;strokeWidth=2;html=1;" parent="sVDJuLf1VJ49UrlVqKed-48" vertex="1">
          <mxGeometry x="74" y="15" width="16" height="10" as="geometry" />
        </mxCell>
        <mxCell id="sVDJuLf1VJ49UrlVqKed-56" value="" style="line;strokeWidth=2;html=1;fontSize=13;" parent="sVDJuLf1VJ49UrlVqKed-67" vertex="1">
          <mxGeometry x="170" y="25" width="40" height="10" as="geometry" />
        </mxCell>
        <mxCell id="sVDJuLf1VJ49UrlVqKed-57" value="" style="rounded=0;whiteSpace=wrap;html=1;fontSize=13;" parent="sVDJuLf1VJ49UrlVqKed-67" vertex="1">
          <mxGeometry x="340" y="10" width="100" height="40" as="geometry" />
        </mxCell>
        <mxCell id="sVDJuLf1VJ49UrlVqKed-58" value="to" style="text;html=1;strokeColor=none;fillColor=none;align=center;verticalAlign=middle;whiteSpace=wrap;rounded=0;fontSize=13;fontStyle=1" parent="sVDJuLf1VJ49UrlVqKed-67" vertex="1">
          <mxGeometry x="360" y="15" width="60" height="30" as="geometry" />
        </mxCell>
        <mxCell id="sVDJuLf1VJ49UrlVqKed-59" value="" style="line;strokeWidth=2;html=1;fontSize=13;" parent="sVDJuLf1VJ49UrlVqKed-67" vertex="1">
          <mxGeometry x="304" y="25" width="36" height="10" as="geometry" />
        </mxCell>
        <mxCell id="sVDJuLf1VJ49UrlVqKed-63" value="" style="rounded=0;whiteSpace=wrap;html=1;" parent="sVDJuLf1VJ49UrlVqKed-67" vertex="1">
          <mxGeometry y="10" width="157.51" height="40" as="geometry" />
        </mxCell>
        <mxCell id="sVDJuLf1VJ49UrlVqKed-64" value="" style="whiteSpace=wrap;html=1;aspect=fixed;rotation=-90;" parent="sVDJuLf1VJ49UrlVqKed-67" vertex="1">
          <mxGeometry x="145" y="17.5" width="25" height="25" as="geometry" />
        </mxCell>
        <mxCell id="sVDJuLf1VJ49UrlVqKed-65" value="" style="line;strokeWidth=2;html=1;" parent="sVDJuLf1VJ49UrlVqKed-67" vertex="1">
          <mxGeometry x="149.5" width="16" height="85" as="geometry" />
        </mxCell>
        <mxCell id="sVDJuLf1VJ49UrlVqKed-66" value="outgoing-link" style="text;html=1;strokeColor=none;fillColor=none;align=center;verticalAlign=middle;whiteSpace=wrap;rounded=0;fontSize=13;fontStyle=1" parent="sVDJuLf1VJ49UrlVqKed-67" vertex="1">
          <mxGeometry x="18.749999999999993" y="15" width="120" height="30" as="geometry" />
        </mxCell>
        <mxCell id="sVDJuLf1VJ49UrlVqKed-69" value="" style="group" parent="sVDJuLf1VJ49UrlVqKed-47" vertex="1" connectable="0">
          <mxGeometry x="0.009999999999999787" y="92.5" width="440" height="177.5" as="geometry" />
        </mxCell>
        <mxCell id="sVDJuLf1VJ49UrlVqKed-70" value="" style="group" parent="sVDJuLf1VJ49UrlVqKed-69" vertex="1" connectable="0">
          <mxGeometry x="210" y="-2.5" width="94" height="40" as="geometry" />
        </mxCell>
        <mxCell id="sVDJuLf1VJ49UrlVqKed-71" value="" style="verticalLabelPosition=bottom;verticalAlign=top;html=1;shape=mxgraph.basic.polygon;polyCoords=[[0.25,0],[0.75,0],[1,0.25],[1,0.75],[0.75,1],[0.25,1],[0,0.75],[0,0.25]];polyline=0;" parent="sVDJuLf1VJ49UrlVqKed-70" vertex="1">
          <mxGeometry width="80" height="40" as="geometry" />
        </mxCell>
        <mxCell id="sVDJuLf1VJ49UrlVqKed-72" value="" style="line;strokeWidth=2;html=1;" parent="sVDJuLf1VJ49UrlVqKed-70" vertex="1">
          <mxGeometry x="10" y="15" width="60" height="10" as="geometry" />
        </mxCell>
        <mxCell id="sVDJuLf1VJ49UrlVqKed-73" value="" style="shape=waypoint;sketch=0;fillStyle=solid;size=6;pointerEvents=1;points=[];fillColor=none;resizable=0;rotatable=0;perimeter=centerPerimeter;snapToPoint=1;" parent="sVDJuLf1VJ49UrlVqKed-70" vertex="1">
          <mxGeometry x="10" width="40" height="40" as="geometry" />
        </mxCell>
        <mxCell id="sVDJuLf1VJ49UrlVqKed-74" value="" style="shape=waypoint;sketch=0;fillStyle=solid;size=6;pointerEvents=1;points=[];fillColor=none;resizable=0;rotatable=0;perimeter=centerPerimeter;snapToPoint=1;" parent="sVDJuLf1VJ49UrlVqKed-70" vertex="1">
          <mxGeometry x="20" width="40" height="40" as="geometry" />
        </mxCell>
        <mxCell id="sVDJuLf1VJ49UrlVqKed-75" value="" style="shape=waypoint;sketch=0;fillStyle=solid;size=6;pointerEvents=1;points=[];fillColor=none;resizable=0;rotatable=0;perimeter=centerPerimeter;snapToPoint=1;" parent="sVDJuLf1VJ49UrlVqKed-70" vertex="1">
          <mxGeometry x="30" width="40" height="40" as="geometry" />
        </mxCell>
        <mxCell id="sVDJuLf1VJ49UrlVqKed-76" value="" style="whiteSpace=wrap;html=1;aspect=fixed;rotation=-90;" parent="sVDJuLf1VJ49UrlVqKed-70" vertex="1">
          <mxGeometry x="69" y="7.5" width="25" height="25" as="geometry" />
        </mxCell>
        <mxCell id="sVDJuLf1VJ49UrlVqKed-77" value="" style="line;strokeWidth=2;html=1;" parent="sVDJuLf1VJ49UrlVqKed-70" vertex="1">
          <mxGeometry x="74" y="15" width="16" height="10" as="geometry" />
        </mxCell>
        <mxCell id="sVDJuLf1VJ49UrlVqKed-78" value="" style="line;strokeWidth=2;html=1;fontSize=13;" parent="sVDJuLf1VJ49UrlVqKed-69" vertex="1">
          <mxGeometry x="170" y="12.5" width="40" height="10" as="geometry" />
        </mxCell>
        <mxCell id="sVDJuLf1VJ49UrlVqKed-79" value="" style="rounded=0;whiteSpace=wrap;html=1;fontSize=13;" parent="sVDJuLf1VJ49UrlVqKed-69" vertex="1">
          <mxGeometry x="340" y="-2.5" width="100" height="40" as="geometry" />
        </mxCell>
        <mxCell id="sVDJuLf1VJ49UrlVqKed-80" value="from" style="text;html=1;strokeColor=none;fillColor=none;align=center;verticalAlign=middle;whiteSpace=wrap;rounded=0;fontSize=13;fontStyle=1" parent="sVDJuLf1VJ49UrlVqKed-69" vertex="1">
          <mxGeometry x="360" y="2.5" width="60" height="30" as="geometry" />
        </mxCell>
        <mxCell id="sVDJuLf1VJ49UrlVqKed-81" value="" style="line;strokeWidth=2;html=1;fontSize=13;" parent="sVDJuLf1VJ49UrlVqKed-69" vertex="1">
          <mxGeometry x="304" y="12.5" width="36" height="10" as="geometry" />
        </mxCell>
        <mxCell id="sVDJuLf1VJ49UrlVqKed-82" value="" style="rounded=0;whiteSpace=wrap;html=1;" parent="sVDJuLf1VJ49UrlVqKed-69" vertex="1">
          <mxGeometry y="-2.5" width="157.51" height="40" as="geometry" />
        </mxCell>
        <mxCell id="sVDJuLf1VJ49UrlVqKed-83" value="" style="whiteSpace=wrap;html=1;aspect=fixed;rotation=-90;" parent="sVDJuLf1VJ49UrlVqKed-69" vertex="1">
          <mxGeometry x="145" y="5" width="25" height="25" as="geometry" />
        </mxCell>
        <mxCell id="sVDJuLf1VJ49UrlVqKed-84" value="" style="line;strokeWidth=2;html=1;" parent="sVDJuLf1VJ49UrlVqKed-69" vertex="1">
          <mxGeometry x="149.5" y="-25" width="16" height="85" as="geometry" />
        </mxCell>
        <mxCell id="sVDJuLf1VJ49UrlVqKed-85" value="incoming-link" style="text;html=1;strokeColor=none;fillColor=none;align=center;verticalAlign=middle;whiteSpace=wrap;rounded=0;fontSize=13;fontStyle=1" parent="sVDJuLf1VJ49UrlVqKed-69" vertex="1">
          <mxGeometry x="18.749999999999993" y="2.5" width="120" height="30" as="geometry" />
        </mxCell>
        <mxCell id="9avk3Qq46MNFsyk8ZGu0-46" value="" style="group" parent="sVDJuLf1VJ49UrlVqKed-69" vertex="1" connectable="0">
          <mxGeometry x="701.1700000000001" y="-232.5" width="157.51" height="110" as="geometry" />
        </mxCell>
        <mxCell id="9avk3Qq46MNFsyk8ZGu0-42" value="" style="group" parent="9avk3Qq46MNFsyk8ZGu0-46" vertex="1" connectable="0">
          <mxGeometry x="-162.49" y="230" width="157.51" height="40" as="geometry" />
        </mxCell>
        <mxCell id="9avk3Qq46MNFsyk8ZGu0-43" value="" style="rounded=0;whiteSpace=wrap;html=1;" parent="9avk3Qq46MNFsyk8ZGu0-42" vertex="1">
          <mxGeometry width="157.51" height="40" as="geometry" />
        </mxCell>
        <mxCell id="9avk3Qq46MNFsyk8ZGu0-44" value="&lt;span style=&quot;font-size: 13px&quot;&gt;&lt;b&gt;from&lt;/b&gt;&lt;/span&gt;" style="text;html=1;strokeColor=none;fillColor=none;align=center;verticalAlign=middle;whiteSpace=wrap;rounded=0;" parent="9avk3Qq46MNFsyk8ZGu0-42" vertex="1">
          <mxGeometry x="48.75000000000001" y="5" width="60" height="30" as="geometry" />
        </mxCell>
        <mxCell id="9avk3Qq46MNFsyk8ZGu0-32" value="" style="group" parent="1" vertex="1" connectable="0">
          <mxGeometry x="720" y="-910" width="157.51" height="40" as="geometry" />
        </mxCell>
        <mxCell id="9avk3Qq46MNFsyk8ZGu0-30" value="" style="rounded=0;whiteSpace=wrap;html=1;" parent="9avk3Qq46MNFsyk8ZGu0-32" vertex="1">
          <mxGeometry width="157.51" height="40" as="geometry" />
        </mxCell>
        <mxCell id="9avk3Qq46MNFsyk8ZGu0-31" value="&lt;font style=&quot;font-size: 13px&quot;&gt;&lt;b&gt;diagram&lt;/b&gt;&lt;/font&gt;" style="text;html=1;strokeColor=none;fillColor=none;align=center;verticalAlign=middle;whiteSpace=wrap;rounded=0;" parent="9avk3Qq46MNFsyk8ZGu0-32" vertex="1">
          <mxGeometry x="48.75000000000001" y="5" width="60" height="30" as="geometry" />
        </mxCell>
        <mxCell id="9avk3Qq46MNFsyk8ZGu0-33" value="" style="group" parent="1" vertex="1" connectable="0">
          <mxGeometry x="720" y="-850" width="157.51" height="40" as="geometry" />
        </mxCell>
        <mxCell id="9avk3Qq46MNFsyk8ZGu0-34" value="" style="rounded=0;whiteSpace=wrap;html=1;" parent="9avk3Qq46MNFsyk8ZGu0-33" vertex="1">
          <mxGeometry width="157.51" height="40" as="geometry" />
        </mxCell>
        <mxCell id="9avk3Qq46MNFsyk8ZGu0-35" value="&lt;font style=&quot;font-size: 13px&quot;&gt;&lt;b&gt;bounds&lt;/b&gt;&lt;/font&gt;" style="text;html=1;strokeColor=none;fillColor=none;align=center;verticalAlign=middle;whiteSpace=wrap;rounded=0;" parent="9avk3Qq46MNFsyk8ZGu0-33" vertex="1">
          <mxGeometry x="48.75000000000001" y="5" width="60" height="30" as="geometry" />
        </mxCell>
        <mxCell id="9avk3Qq46MNFsyk8ZGu0-36" value="" style="group" parent="1" vertex="1" connectable="0">
          <mxGeometry x="720" y="-790" width="158.75" height="40" as="geometry" />
        </mxCell>
        <mxCell id="9avk3Qq46MNFsyk8ZGu0-37" value="" style="rounded=0;whiteSpace=wrap;html=1;" parent="9avk3Qq46MNFsyk8ZGu0-36" vertex="1">
          <mxGeometry width="158.75" height="40" as="geometry" />
        </mxCell>
        <mxCell id="9avk3Qq46MNFsyk8ZGu0-38" value="&lt;span style=&quot;font-size: 13px&quot;&gt;&lt;b&gt;tag&lt;/b&gt;&lt;/span&gt;" style="text;html=1;strokeColor=none;fillColor=none;align=center;verticalAlign=middle;whiteSpace=wrap;rounded=0;" parent="9avk3Qq46MNFsyk8ZGu0-36" vertex="1">
          <mxGeometry x="49.13378515649801" y="5" width="60.472350961843695" height="30" as="geometry" />
        </mxCell>
        <mxCell id="9avk3Qq46MNFsyk8ZGu0-3" value="" style="shape=loopLimit;whiteSpace=wrap;html=1;rotation=-90;horizontal=0;verticalAlign=middle;textDirection=ltr;labelPosition=center;verticalLabelPosition=middle;align=center;size=12;container=0;" parent="1" vertex="1">
          <mxGeometry x="786.2500000000001" y="-635" width="38.82" height="213.8" as="geometry" />
        </mxCell>
        <mxCell id="9avk3Qq46MNFsyk8ZGu0-5" value="&lt;b&gt;&lt;font style=&quot;font-size: 13px&quot;&gt;flowmodel.bounds.type&lt;/font&gt;&lt;/b&gt;" style="text;html=1;strokeColor=none;fillColor=none;align=center;verticalAlign=middle;whiteSpace=wrap;rounded=0;container=0;" parent="1" vertex="1">
          <mxGeometry x="700" y="-543.1" width="208.1" height="30" as="geometry" />
        </mxCell>
        <mxCell id="9avk3Qq46MNFsyk8ZGu0-23" value="" style="group" parent="1" vertex="1" connectable="0">
          <mxGeometry x="699.9999999999999" y="-490" width="213.8000000000001" height="38.820000000000164" as="geometry" />
        </mxCell>
        <mxCell id="9avk3Qq46MNFsyk8ZGu0-20" value="" style="shape=loopLimit;whiteSpace=wrap;html=1;rotation=-90;horizontal=0;verticalAlign=middle;textDirection=ltr;labelPosition=center;verticalLabelPosition=middle;align=center;size=12;container=0;" parent="9avk3Qq46MNFsyk8ZGu0-23" vertex="1">
          <mxGeometry x="87.4900000000001" y="-87.49000000000001" width="38.82" height="213.8" as="geometry" />
        </mxCell>
        <mxCell id="9avk3Qq46MNFsyk8ZGu0-21" value="&lt;b&gt;&lt;font style=&quot;font-size: 13px&quot;&gt;flowmodel.tag.type&lt;/font&gt;&lt;/b&gt;" style="text;html=1;strokeColor=none;fillColor=none;align=center;verticalAlign=middle;whiteSpace=wrap;rounded=0;container=0;" parent="9avk3Qq46MNFsyk8ZGu0-23" vertex="1">
          <mxGeometry x="3.8000000000000895" y="4.4099999999998545" width="210" height="30" as="geometry" />
        </mxCell>
        <mxCell id="9avk3Qq46MNFsyk8ZGu0-75" value="" style="group" parent="1" vertex="1" connectable="0">
          <mxGeometry x="177.51000000000002" y="-432.82" width="492.49" height="112.61999999999989" as="geometry" />
        </mxCell>
        <mxCell id="cR9HXsBc68klS0TnYcOj-10" value="" style="group" parent="9avk3Qq46MNFsyk8ZGu0-75" vertex="1" connectable="0">
          <mxGeometry width="492.49" height="41.309999999999945" as="geometry" />
        </mxCell>
        <mxCell id="cR9HXsBc68klS0TnYcOj-8" value="" style="group" parent="cR9HXsBc68klS0TnYcOj-10" vertex="1" connectable="0">
          <mxGeometry width="267.49" height="38.819999999999936" as="geometry" />
        </mxCell>
        <mxCell id="sVDJuLf1VJ49UrlVqKed-95" value="" style="shape=loopLimit;whiteSpace=wrap;html=1;rotation=-90;horizontal=0;verticalAlign=middle;textDirection=ltr;labelPosition=center;verticalLabelPosition=middle;align=center;size=12;" parent="cR9HXsBc68klS0TnYcOj-8" vertex="1">
          <mxGeometry x="87.48999999999998" y="-87.49000000000001" width="38.82" height="213.8" as="geometry" />
        </mxCell>
        <mxCell id="sVDJuLf1VJ49UrlVqKed-97" value="" style="line;strokeWidth=2;html=1;fontSize=13;" parent="cR9HXsBc68klS0TnYcOj-8" vertex="1">
          <mxGeometry x="227.48999999999998" y="14.409999999999968" width="40" height="10" as="geometry" />
        </mxCell>
        <mxCell id="cR9HXsBc68klS0TnYcOj-5" value="&lt;b&gt;&lt;font style=&quot;font-size: 13px&quot;&gt;flowmodel.outgoing-link.type&lt;/font&gt;&lt;/b&gt;" style="text;html=1;strokeColor=none;fillColor=none;align=center;verticalAlign=middle;whiteSpace=wrap;rounded=0;" parent="cR9HXsBc68klS0TnYcOj-8" vertex="1">
          <mxGeometry x="1.8999999999999808" y="4.409999999999968" width="210" height="30" as="geometry" />
        </mxCell>
        <mxCell id="sVDJuLf1VJ49UrlVqKed-99" value="" style="whiteSpace=wrap;html=1;aspect=fixed;rotation=-90;" parent="cR9HXsBc68klS0TnYcOj-8" vertex="1">
          <mxGeometry x="202.48999999999998" y="6.909999999999968" width="25" height="25" as="geometry" />
        </mxCell>
        <mxCell id="sVDJuLf1VJ49UrlVqKed-100" value="" style="line;strokeWidth=2;html=1;" parent="cR9HXsBc68klS0TnYcOj-8" vertex="1">
          <mxGeometry x="206.98" y="14.409999999999968" width="16" height="10" as="geometry" />
        </mxCell>
        <mxCell id="cR9HXsBc68klS0TnYcOj-9" value="" style="group" parent="cR9HXsBc68klS0TnYcOj-10" vertex="1" connectable="0">
          <mxGeometry x="262.49" y="1.3099999999999454" width="230" height="40" as="geometry" />
        </mxCell>
        <mxCell id="sVDJuLf1VJ49UrlVqKed-87" value="" style="group" parent="cR9HXsBc68klS0TnYcOj-9" vertex="1" connectable="0">
          <mxGeometry width="94" height="40" as="geometry" />
        </mxCell>
        <mxCell id="sVDJuLf1VJ49UrlVqKed-88" value="" style="verticalLabelPosition=bottom;verticalAlign=top;html=1;shape=mxgraph.basic.polygon;polyCoords=[[0.25,0],[0.75,0],[1,0.25],[1,0.75],[0.75,1],[0.25,1],[0,0.75],[0,0.25]];polyline=0;" parent="sVDJuLf1VJ49UrlVqKed-87" vertex="1">
          <mxGeometry width="80" height="40" as="geometry" />
        </mxCell>
        <mxCell id="sVDJuLf1VJ49UrlVqKed-89" value="" style="line;strokeWidth=2;html=1;" parent="sVDJuLf1VJ49UrlVqKed-87" vertex="1">
          <mxGeometry x="10" y="15" width="60" height="10" as="geometry" />
        </mxCell>
        <mxCell id="sVDJuLf1VJ49UrlVqKed-90" value="" style="shape=waypoint;sketch=0;fillStyle=solid;size=6;pointerEvents=1;points=[];fillColor=none;resizable=0;rotatable=0;perimeter=centerPerimeter;snapToPoint=1;" parent="sVDJuLf1VJ49UrlVqKed-87" vertex="1">
          <mxGeometry x="10" width="40" height="40" as="geometry" />
        </mxCell>
        <mxCell id="sVDJuLf1VJ49UrlVqKed-91" value="" style="shape=waypoint;sketch=0;fillStyle=solid;size=6;pointerEvents=1;points=[];fillColor=none;resizable=0;rotatable=0;perimeter=centerPerimeter;snapToPoint=1;" parent="sVDJuLf1VJ49UrlVqKed-87" vertex="1">
          <mxGeometry x="20" width="40" height="40" as="geometry" />
        </mxCell>
        <mxCell id="sVDJuLf1VJ49UrlVqKed-92" value="" style="shape=waypoint;sketch=0;fillStyle=solid;size=6;pointerEvents=1;points=[];fillColor=none;resizable=0;rotatable=0;perimeter=centerPerimeter;snapToPoint=1;" parent="sVDJuLf1VJ49UrlVqKed-87" vertex="1">
          <mxGeometry x="30" width="40" height="40" as="geometry" />
        </mxCell>
        <mxCell id="sVDJuLf1VJ49UrlVqKed-93" value="" style="whiteSpace=wrap;html=1;aspect=fixed;rotation=-90;" parent="sVDJuLf1VJ49UrlVqKed-87" vertex="1">
          <mxGeometry x="69" y="7.5" width="25" height="25" as="geometry" />
        </mxCell>
        <mxCell id="sVDJuLf1VJ49UrlVqKed-94" value="" style="line;strokeWidth=2;html=1;" parent="sVDJuLf1VJ49UrlVqKed-87" vertex="1">
          <mxGeometry x="74" y="15" width="16" height="10" as="geometry" />
        </mxCell>
        <mxCell id="sVDJuLf1VJ49UrlVqKed-98" value="" style="rounded=0;whiteSpace=wrap;html=1;fontSize=13;" parent="cR9HXsBc68klS0TnYcOj-9" vertex="1">
          <mxGeometry x="130" width="100" height="40" as="geometry" />
        </mxCell>
        <mxCell id="sVDJuLf1VJ49UrlVqKed-101" value="to" style="text;html=1;strokeColor=none;fillColor=none;align=center;verticalAlign=middle;whiteSpace=wrap;rounded=0;fontSize=13;fontStyle=1" parent="cR9HXsBc68klS0TnYcOj-9" vertex="1">
          <mxGeometry x="150" y="5" width="60" height="30" as="geometry" />
        </mxCell>
        <mxCell id="sVDJuLf1VJ49UrlVqKed-102" value="" style="line;strokeWidth=2;html=1;fontSize=13;" parent="cR9HXsBc68klS0TnYcOj-9" vertex="1">
          <mxGeometry x="94" y="15" width="36" height="10" as="geometry" />
        </mxCell>
        <mxCell id="cR9HXsBc68klS0TnYcOj-11" value="" style="group" parent="9avk3Qq46MNFsyk8ZGu0-75" vertex="1" connectable="0">
          <mxGeometry y="71.30999999999995" width="492.49" height="41.309999999999945" as="geometry" />
        </mxCell>
        <mxCell id="cR9HXsBc68klS0TnYcOj-12" value="" style="group" parent="cR9HXsBc68klS0TnYcOj-11" vertex="1" connectable="0">
          <mxGeometry width="267.49" height="38.819999999999936" as="geometry" />
        </mxCell>
        <mxCell id="cR9HXsBc68klS0TnYcOj-13" value="" style="shape=loopLimit;whiteSpace=wrap;html=1;rotation=-90;horizontal=0;verticalAlign=middle;textDirection=ltr;labelPosition=center;verticalLabelPosition=middle;align=center;size=12;" parent="cR9HXsBc68klS0TnYcOj-12" vertex="1">
          <mxGeometry x="87.48999999999998" y="-87.49000000000001" width="38.82" height="213.8" as="geometry" />
        </mxCell>
        <mxCell id="cR9HXsBc68klS0TnYcOj-14" value="" style="line;strokeWidth=2;html=1;fontSize=13;" parent="cR9HXsBc68klS0TnYcOj-12" vertex="1">
          <mxGeometry x="227.48999999999998" y="14.409999999999968" width="40" height="10" as="geometry" />
        </mxCell>
        <mxCell id="cR9HXsBc68klS0TnYcOj-15" value="&lt;b&gt;&lt;font style=&quot;font-size: 13px&quot;&gt;flowmodel.incoming-link.type&lt;/font&gt;&lt;/b&gt;" style="text;html=1;strokeColor=none;fillColor=none;align=center;verticalAlign=middle;whiteSpace=wrap;rounded=0;" parent="cR9HXsBc68klS0TnYcOj-12" vertex="1">
          <mxGeometry x="1.8999999999999808" y="4.409999999999968" width="210" height="30" as="geometry" />
        </mxCell>
        <mxCell id="cR9HXsBc68klS0TnYcOj-16" value="" style="whiteSpace=wrap;html=1;aspect=fixed;rotation=-90;" parent="cR9HXsBc68klS0TnYcOj-12" vertex="1">
          <mxGeometry x="202.48999999999998" y="6.909999999999968" width="25" height="25" as="geometry" />
        </mxCell>
        <mxCell id="cR9HXsBc68klS0TnYcOj-17" value="" style="line;strokeWidth=2;html=1;" parent="cR9HXsBc68klS0TnYcOj-12" vertex="1">
          <mxGeometry x="206.98" y="14.409999999999968" width="16" height="10" as="geometry" />
        </mxCell>
        <mxCell id="cR9HXsBc68klS0TnYcOj-18" value="" style="group" parent="cR9HXsBc68klS0TnYcOj-11" vertex="1" connectable="0">
          <mxGeometry x="262.49" y="1.3099999999999454" width="230" height="40" as="geometry" />
        </mxCell>
        <mxCell id="cR9HXsBc68klS0TnYcOj-19" value="" style="group" parent="cR9HXsBc68klS0TnYcOj-18" vertex="1" connectable="0">
          <mxGeometry width="94" height="40" as="geometry" />
        </mxCell>
        <mxCell id="cR9HXsBc68klS0TnYcOj-20" value="" style="verticalLabelPosition=bottom;verticalAlign=top;html=1;shape=mxgraph.basic.polygon;polyCoords=[[0.25,0],[0.75,0],[1,0.25],[1,0.75],[0.75,1],[0.25,1],[0,0.75],[0,0.25]];polyline=0;" parent="cR9HXsBc68klS0TnYcOj-19" vertex="1">
          <mxGeometry width="80" height="40" as="geometry" />
        </mxCell>
        <mxCell id="cR9HXsBc68klS0TnYcOj-21" value="" style="line;strokeWidth=2;html=1;" parent="cR9HXsBc68klS0TnYcOj-19" vertex="1">
          <mxGeometry x="10" y="15" width="60" height="10" as="geometry" />
        </mxCell>
        <mxCell id="cR9HXsBc68klS0TnYcOj-22" value="" style="shape=waypoint;sketch=0;fillStyle=solid;size=6;pointerEvents=1;points=[];fillColor=none;resizable=0;rotatable=0;perimeter=centerPerimeter;snapToPoint=1;" parent="cR9HXsBc68klS0TnYcOj-19" vertex="1">
          <mxGeometry x="10" width="40" height="40" as="geometry" />
        </mxCell>
        <mxCell id="cR9HXsBc68klS0TnYcOj-23" value="" style="shape=waypoint;sketch=0;fillStyle=solid;size=6;pointerEvents=1;points=[];fillColor=none;resizable=0;rotatable=0;perimeter=centerPerimeter;snapToPoint=1;" parent="cR9HXsBc68klS0TnYcOj-19" vertex="1">
          <mxGeometry x="20" width="40" height="40" as="geometry" />
        </mxCell>
        <mxCell id="cR9HXsBc68klS0TnYcOj-24" value="" style="shape=waypoint;sketch=0;fillStyle=solid;size=6;pointerEvents=1;points=[];fillColor=none;resizable=0;rotatable=0;perimeter=centerPerimeter;snapToPoint=1;" parent="cR9HXsBc68klS0TnYcOj-19" vertex="1">
          <mxGeometry x="30" width="40" height="40" as="geometry" />
        </mxCell>
        <mxCell id="cR9HXsBc68klS0TnYcOj-25" value="" style="whiteSpace=wrap;html=1;aspect=fixed;rotation=-90;" parent="cR9HXsBc68klS0TnYcOj-19" vertex="1">
          <mxGeometry x="69" y="7.5" width="25" height="25" as="geometry" />
        </mxCell>
        <mxCell id="cR9HXsBc68klS0TnYcOj-26" value="" style="line;strokeWidth=2;html=1;" parent="cR9HXsBc68klS0TnYcOj-19" vertex="1">
          <mxGeometry x="74" y="15" width="16" height="10" as="geometry" />
        </mxCell>
        <mxCell id="cR9HXsBc68klS0TnYcOj-27" value="" style="rounded=0;whiteSpace=wrap;html=1;fontSize=13;" parent="cR9HXsBc68klS0TnYcOj-18" vertex="1">
          <mxGeometry x="130" width="100" height="40" as="geometry" />
        </mxCell>
        <mxCell id="cR9HXsBc68klS0TnYcOj-28" value="from" style="text;html=1;strokeColor=none;fillColor=none;align=center;verticalAlign=middle;whiteSpace=wrap;rounded=0;fontSize=13;fontStyle=1" parent="cR9HXsBc68klS0TnYcOj-18" vertex="1">
          <mxGeometry x="150" y="5" width="60" height="30" as="geometry" />
        </mxCell>
        <mxCell id="cR9HXsBc68klS0TnYcOj-29" value="" style="line;strokeWidth=2;html=1;fontSize=13;" parent="cR9HXsBc68klS0TnYcOj-18" vertex="1">
          <mxGeometry x="94" y="15" width="36" height="10" as="geometry" />
        </mxCell>
        <mxCell id="iBK__M4HhKM0fH5wP9JP-2" value="" style="shape=loopLimit;whiteSpace=wrap;html=1;rotation=-90;horizontal=0;verticalAlign=middle;textDirection=ltr;labelPosition=center;verticalLabelPosition=middle;align=center;size=12;container=0;" vertex="1" parent="1">
          <mxGeometry x="786.2500000000001" y="-696.51" width="38.82" height="213.8" as="geometry" />
        </mxCell>
        <mxCell id="iBK__M4HhKM0fH5wP9JP-3" value="&lt;span style=&quot;font-size: 13px ; font-weight: bold&quot;&gt;flowmodel.diagram.type&lt;/span&gt;" style="text;html=1;strokeColor=none;fillColor=none;align=center;verticalAlign=middle;whiteSpace=wrap;rounded=0;container=0;" vertex="1" parent="1">
          <mxGeometry x="700" y="-604.61" width="208.1" height="30" as="geometry" />
        </mxCell>
        <mxCell id="9avk3Qq46MNFsyk8ZGu0-40" value="" style="rounded=0;whiteSpace=wrap;html=1;" parent="1" vertex="1">
          <mxGeometry x="720" y="-730" width="157.51" height="40" as="geometry" />
        </mxCell>
        <mxCell id="9avk3Qq46MNFsyk8ZGu0-41" value="&lt;span style=&quot;font-size: 13px&quot;&gt;&lt;b&gt;to&lt;/b&gt;&lt;/span&gt;" style="text;html=1;strokeColor=none;fillColor=none;align=center;verticalAlign=middle;whiteSpace=wrap;rounded=0;" parent="1" vertex="1">
          <mxGeometry x="768.75" y="-725" width="60" height="30" as="geometry" />
        </mxCell>
        <mxCell id="9avk3Qq46MNFsyk8ZGu0-24" value="" style="group" parent="1" vertex="1" connectable="0">
          <mxGeometry x="699.9999999999999" y="-429.51" width="213.8000000000001" height="38.820000000000164" as="geometry" />
        </mxCell>
        <mxCell id="9avk3Qq46MNFsyk8ZGu0-25" value="" style="shape=loopLimit;whiteSpace=wrap;html=1;rotation=-90;horizontal=0;verticalAlign=middle;textDirection=ltr;labelPosition=center;verticalLabelPosition=middle;align=center;size=12;container=0;" parent="9avk3Qq46MNFsyk8ZGu0-24" vertex="1">
          <mxGeometry x="87.4900000000001" y="-87.49000000000001" width="38.82" height="213.8" as="geometry" />
        </mxCell>
        <mxCell id="9avk3Qq46MNFsyk8ZGu0-26" value="&lt;b&gt;&lt;font style=&quot;font-size: 13px&quot;&gt;flowmodel.from.type&lt;/font&gt;&lt;/b&gt;" style="text;html=1;strokeColor=none;fillColor=none;align=center;verticalAlign=middle;whiteSpace=wrap;rounded=0;container=0;" parent="9avk3Qq46MNFsyk8ZGu0-24" vertex="1">
          <mxGeometry x="3.8000000000000895" y="4.4099999999998545" width="210" height="30" as="geometry" />
        </mxCell>
        <mxCell id="9avk3Qq46MNFsyk8ZGu0-27" value="" style="group" parent="1" vertex="1" connectable="0">
          <mxGeometry x="701.9" y="-370" width="210" height="38.82" as="geometry" />
        </mxCell>
        <mxCell id="9avk3Qq46MNFsyk8ZGu0-28" value="" style="shape=loopLimit;whiteSpace=wrap;html=1;rotation=-90;horizontal=0;verticalAlign=middle;textDirection=ltr;labelPosition=center;verticalLabelPosition=middle;align=center;size=12;container=0;" parent="9avk3Qq46MNFsyk8ZGu0-27" vertex="1">
          <mxGeometry x="85.93498596819462" y="-87.48999999999964" width="38.13002806361083" height="213.7999999999991" as="geometry" />
        </mxCell>
        <mxCell id="9avk3Qq46MNFsyk8ZGu0-29" value="&lt;b&gt;&lt;font style=&quot;font-size: 13px&quot;&gt;flowmodel.to.type&lt;/font&gt;&lt;/b&gt;" style="text;html=1;strokeColor=none;fillColor=none;align=center;verticalAlign=middle;whiteSpace=wrap;rounded=0;container=0;" parent="9avk3Qq46MNFsyk8ZGu0-27" vertex="1">
          <mxGeometry x="1.8599999999999999" y="4.41" width="206.27" height="30" as="geometry" />
        </mxCell>
      </root>
    </mxGraphModel>
  </diagram>
</mxfile>
